# xmcd CD database file
#
# Track frame offsets:
#	150
#	19079
#	43365
#	59593
#	83007
#	101467
#	125486
#	142406
#	169302
#	190052
#
# Disc length: 2782 seconds
#
# Revision: 1
# Processed by: cddbd v1.5.2PL0 Copyright (c) Steve Scherf et al.
# Submitted via: CDex 1.77
#
DISCID=910adc0a
DTITLE=Fast Eddys Blue Band - Blues Club
DYEAR=2010
DGENRE=Blues
TTITLE0=Tore Down
TTITLE1=One Mistake
TTITLE2=For You My Love
TTITLE3=Time Is So Precious
TTITLE4=Pack It Up
TTITLE5=My Baby She's At Home
TTITLE6=I Got The Same Old Blues
TTITLE7=Full Moon Shining
TTITLE8=Born Under A Bad Sign
TTITLE9=Back At The Shack
EXTD=YEAR: 2010
EXTT0=
EXTT1=
EXTT2=
EXTT3=
EXTT4=
EXTT5=
EXTT6=
EXTT7=
EXTT8=
EXTT9=
PLAYORDER=
